<svg width="58" height="58" viewBox="0 0 58 58" fill="none" xmlns="http://www.w3.org/2000/svg">
<path d="M56.8576 10.194L47.9818 1.3182C47.8939 1.23032 47.8061 1.23032 47.7182 1.14244H47.6303C47.5424 1.14244 47.4545 1.05457 47.3667 1.05457C47.3667 1.05457 47.3667 1.05457 47.2788 1.05457H5.27272C2.81212 1.05457 0.878784 2.9879 0.878784 5.4485V33.0424C0.878784 35.503 2.81212 37.4364 5.27272 37.4364H14.2364L12.2151 39.9849C12.0394 40.2485 11.9515 40.6 12.1273 40.9515C12.303 41.2152 12.5667 41.4788 12.9182 41.4788H14.1485V56.0667C14.1485 56.5061 14.5879 56.9455 15.0273 56.9455H52.5515C52.9909 56.9455 53.4303 56.594 53.4303 56.0667V41.4788H54.3091C54.6606 41.4788 54.9242 41.303 55.1 40.9515C55.2758 40.6879 55.1879 40.2485 55.0121 39.9849L52.9909 37.4364C55.2758 37.2606 57.0333 35.4152 57.0333 33.0424V11.0727C57.2091 10.8091 57.1212 10.4576 56.8576 10.194ZM29.3515 55.1H26.3636V47.1909C26.3636 46.7515 26.0121 46.3121 25.4848 46.3121H19.6848C19.2455 46.3121 18.8061 46.7515 18.8061 47.1909V55.1H15.9061V41.4788H29.3515V55.1ZM14.7636 39.7212L22.5848 29.703L28.297 36.9091L30.5818 39.7212H14.7636ZM10.0182 17.7515C10.5455 17.7515 10.897 17.4 10.897 16.8727V14.1485C11.7758 14.5 12.4788 15.3788 12.4788 16.4334V16.8727C12.4788 17.4 12.8303 17.7515 13.3576 17.7515H28.5606C29.0879 17.7515 29.4394 17.4 29.4394 16.8727V14.1485C30.3182 14.5 31.0212 15.3788 31.0212 16.4334V16.8727C31.0212 17.4 31.4606 17.7515 31.9 17.7515H41.2151V21.6182H29.6151C29.0879 21.6182 28.7364 22.0576 28.7364 22.497V27.4182H22.5848C22.497 27.4182 22.3212 27.4182 22.2333 27.5061H22.1455C22.0576 27.594 21.9697 27.594 21.8818 27.6818L18.8939 31.4606H13.8848C13.7091 29.3515 11.8636 27.6818 9.66666 27.6818C9.13939 27.6818 8.78788 28.0334 8.78788 28.5606V31.4606H7.64545V17.7515H10.0182ZM7.64545 15.994V7.1182H23.5515V15.994H14.1485C13.9727 13.8849 12.1273 12.2152 9.9303 12.2152C9.40303 12.2152 9.05151 12.5667 9.05151 13.094V15.994H7.64545ZM25.2212 15.994V7.1182H41.1273V15.994H32.6909C32.6909 15.9061 32.6909 15.8182 32.6909 15.8182C32.6909 15.7303 32.6909 15.5546 32.603 15.4667C32.603 15.2909 32.5151 15.2031 32.5151 15.0273C32.5151 14.9394 32.4273 14.8515 32.4273 14.6758C32.3394 14.5879 32.3394 14.4121 32.2515 14.3243C32.1636 14.2364 32.1636 14.1485 32.0758 14.0606C31.9879 13.9727 31.9 13.797 31.8121 13.7091C31.7242 13.6212 31.6364 13.5334 31.5485 13.4455C31.4606 13.3576 31.2848 13.2697 31.197 13.1818C31.1091 13.094 31.0212 13.0061 30.9333 13.0061C30.8455 12.9182 30.6697 12.8303 30.4939 12.8303C30.4061 12.7424 30.3182 12.7424 30.2303 12.6546C30.0545 12.5667 29.8788 12.5667 29.703 12.4788C29.6151 12.4788 29.5273 12.3909 29.4394 12.3909C29.1758 12.3031 28.9121 12.3031 28.6485 12.3031C28.2091 12.3031 27.7697 12.6546 27.7697 13.1818V16.0818H25.2212V15.994ZM51.7606 55.1H31.1091V41.4788H51.6727L51.7606 55.1ZM55.2758 33.1303C55.2758 34.6243 54.1333 35.7667 52.6394 35.7667H51.5848L45.1697 27.7697C44.9939 27.594 44.7303 27.4182 44.4667 27.4182H30.4939V23.3758H42.0939C42.6212 23.3758 42.9727 22.9364 42.9727 22.497V6.23941C42.9727 5.71214 42.6212 5.36063 42.0939 5.36063H6.76666C6.32727 5.36063 5.88788 5.71214 5.88788 6.23941V32.4273C5.88788 32.8667 6.32727 33.3061 6.76666 33.3061H9.75454C10.2818 33.3061 10.6333 32.8667 10.6333 32.4273V29.703C11.5121 30.0546 12.2151 30.9334 12.2151 31.9879V32.4273C12.2151 32.8667 12.5667 33.3061 13.0939 33.3061H17.5758L15.6424 35.7667H5.27272C3.77878 35.7667 2.63636 34.6243 2.63636 33.1303V5.53638C2.63636 4.04244 3.77878 2.90002 5.27272 2.90002H46.4879V6.94244C46.4879 9.57881 48.6848 11.7758 51.3212 11.7758H55.2758V33.1303Z" fill="#B3B3B3"/>
<path d="M52.2 14.1485H48.4212C47.8939 14.1485 47.5424 14.5 47.5424 15.0273C47.5424 15.5546 47.8939 15.9061 48.4212 15.9061H52.2C52.7273 15.9061 53.0788 15.5546 53.0788 15.0273C53.0788 14.5 52.7273 14.1485 52.2 14.1485Z" fill="#B3B3B3"/>
<path d="M52.2 18.8061H45.4334C44.9061 18.8061 44.5546 19.1576 44.5546 19.6849C44.5546 20.2122 44.9061 20.5637 45.4334 20.5637H52.2C52.7273 20.5637 53.0788 20.2122 53.0788 19.6849C53.0788 19.2455 52.7273 18.8061 52.2 18.8061Z" fill="#B3B3B3"/>
<path d="M52.2 23.5515H45.4334C44.9061 23.5515 44.5546 23.903 44.5546 24.4303C44.5546 24.9576 44.9061 25.3091 45.4334 25.3091H52.2C52.7273 25.3091 53.0788 24.9576 53.0788 24.4303C53.0788 23.9909 52.7273 23.5515 52.2 23.5515Z" fill="#B3B3B3"/>
<path d="M40.6 47.1031V52.4637C40.6 52.9031 40.1606 53.3425 39.7212 53.3425H34.0091C33.4818 53.3425 33.1303 52.9031 33.1303 52.4637V47.1031C33.1303 44.994 34.8 43.3243 36.9091 43.3243C38.9303 43.3243 40.6 44.994 40.6 47.1031Z" fill="#B3B3B3"/>
<path d="M49.7394 47.1031V52.4637C49.7394 52.9031 49.3 53.3425 48.8606 53.3425H43.1485C42.6212 53.3425 42.2697 52.9031 42.2697 52.4637V47.1031C42.2697 44.994 43.9394 43.3243 46.0485 43.3243C48.0697 43.3243 49.7394 44.994 49.7394 47.1031Z" fill="#B3B3B3"/>
</svg>
