<svg width="67" height="67" viewBox="0 0 67 67" fill="none" xmlns="http://www.w3.org/2000/svg">
<path fill-rule="evenodd" clip-rule="evenodd" d="M7.05004 2.09375H36.9687V7.96711C36.9687 9.40643 38.1382 10.5761 39.5776 10.5761H45.4511V33.0056H41.2589C38.1486 33.0056 35.6145 35.5396 35.6145 38.6498V40.3685H30.2102C28.3944 40.3685 26.9178 41.8453 26.9178 43.6611V49.3645C26.9178 50.8898 27.5537 52.1718 28.5886 53.2002H7.05004C6.4825 53.2002 6.01965 52.7374 6.01965 52.1698V3.12414C6.01965 2.5566 6.4825 2.09375 7.05004 2.09375ZM54.9444 37.6147L57.6437 32.9395H51.5653L54.2645 37.6147C54.4152 37.8758 54.7937 37.8758 54.9444 37.6147ZM57.6437 30.8458V7.20721C57.6437 5.81225 56.506 4.67456 55.111 4.67456H54.0979C52.7029 4.67456 51.5653 5.81225 51.5653 7.20721V30.8458H57.6437ZM42.0497 55.2516C42.0497 56.8787 43.3688 58.1977 44.9959 58.1977C46.623 58.1977 47.942 56.8787 47.942 55.2516C47.942 53.6296 46.6282 52.3054 44.9959 52.3054C43.3635 52.3054 42.0497 53.6296 42.0497 55.2516ZM58.827 52.5722C59.9892 51.8367 60.9803 50.8387 60.9803 49.3643V43.661C60.9803 43.0007 60.4417 42.4622 59.7815 42.4622H54.3897V45.0516C54.3897 46.4563 53.2444 47.6015 51.8398 47.6015H38.1518C36.7471 47.6015 35.6019 46.4563 35.6019 45.0516V42.4622H30.2102C29.55 42.4622 29.0115 43.0007 29.0115 43.661V49.3643C29.0115 50.8383 30.0028 51.8368 31.1648 52.5722C32.8721 53.6523 36.1915 54.3503 39.9896 54.6702C40.278 52.1615 42.4096 50.2117 44.996 50.2117C47.5815 50.2117 49.7124 52.1602 50.002 54.6677C53.8064 54.346 57.1285 53.6468 58.827 52.5722ZM52.296 42.4623H37.6956V45.0517C37.6956 45.3005 37.903 45.5079 38.1518 45.5079H51.8399C52.0887 45.5079 52.2961 45.3005 52.2961 45.0517L52.296 42.4623ZM30.4362 54.5695C32.5494 55.7279 36.1636 56.4682 40.1958 56.7909C40.8467 58.8212 42.7499 60.2915 44.9959 60.2915C47.2418 60.2915 49.145 58.8212 49.7959 56.7909C53.8285 56.468 57.4427 55.7276 59.5554 54.5697V62.5667C59.5554 63.8535 58.5026 64.9064 57.2158 64.9064H32.7758C31.4889 64.9064 30.4362 63.8535 30.4362 62.5667V54.5695ZM50.1899 40.3685H52.2837V38.6498C52.2837 36.6949 50.6881 35.0994 48.7332 35.0994H41.2588C39.3039 35.0994 37.7082 36.6951 37.7082 38.6498V40.3685H39.8019V38.6498C39.8019 37.8508 40.4597 37.193 41.2588 37.193H48.7332C49.5324 37.193 50.1899 37.8507 50.1899 38.6498V40.3685ZM39.0623 2.18313V7.96724C39.0623 8.25108 39.2938 8.48244 39.5775 8.48244H45.3616C45.3116 8.37304 45.2408 8.27228 45.1492 8.18067L39.3642 2.39564C39.2725 2.30391 39.1718 2.23312 39.0623 2.18313ZM24.5738 44.1979H10.8607C10.2825 44.1979 9.81379 44.6666 9.81379 45.2448C9.81379 45.8229 10.2825 46.2916 10.8607 46.2916H24.5739C25.1521 46.2916 25.6208 45.8229 25.6208 45.2448C25.6207 44.6666 25.1519 44.1979 24.5738 44.1979ZM35.3755 25.0799H19.0848C18.5066 25.0799 18.0379 25.5486 18.0379 26.1267C18.0379 26.7049 18.5066 27.1736 19.0848 27.1736H35.3755C35.9536 27.1736 36.4223 26.7049 36.4223 26.1267C36.4223 25.5486 35.9536 25.0799 35.3755 25.0799ZM15.4431 25.0799H10.8605C10.2824 25.0799 9.81366 25.5486 9.81366 26.1267C9.81366 26.7049 10.2824 27.1736 10.8605 27.1736H15.4431C16.0212 27.1736 16.49 26.7049 16.49 26.1267C16.49 25.5486 16.0212 25.0799 15.4431 25.0799ZM35.4561 31.4526H29.9107C29.3325 31.4526 28.8638 31.9213 28.8638 32.4995C28.8638 33.0776 29.3325 33.5463 29.9107 33.5463H35.4561C36.0342 33.5463 36.503 33.0776 36.503 32.4995C36.503 31.9213 36.0343 31.4526 35.4561 31.4526ZM25.6009 31.4526H10.9411C10.363 31.4526 9.89427 31.9213 9.89427 32.4995C9.89427 33.0776 10.363 33.5463 10.9411 33.5463H25.6009C26.1791 33.5463 26.6478 33.0776 26.6478 32.4995C26.6478 31.9213 26.1791 31.4526 25.6009 31.4526ZM26.1118 37.8252H11.0218C10.4436 37.8252 9.97488 38.2939 9.97488 38.872C9.97488 39.4502 10.4436 39.9189 11.0218 39.9189H26.1118C26.6899 39.9189 27.1587 39.4502 27.1587 38.872C27.1587 38.2939 26.6899 37.8252 26.1118 37.8252ZM18.0184 3.42302C15.7209 3.42302 13.8585 5.28554 13.8585 7.58291C13.8585 9.88041 15.721 11.7429 18.0184 11.7429C20.3159 11.7429 22.1784 9.88041 22.1784 7.58291C22.1784 5.28554 20.3159 3.42302 18.0184 3.42302ZM10.2874 20.3939H25.7495C25.993 20.3939 26.1764 20.1781 26.1369 19.9377C25.4962 16.0318 22.1055 13.0515 18.0184 13.0515C13.9313 13.0515 10.5405 16.0318 9.8999 19.9377C9.86038 20.1783 10.0437 20.3939 10.2874 20.3939Z" fill="#B3B3B3"/>
</svg>
