<svg width="60" height="60" viewBox="0 0 60 60" fill="none" xmlns="http://www.w3.org/2000/svg">
<path fill-rule="evenodd" clip-rule="evenodd" d="M36.25 5.51752V10C36.25 12.0713 37.9288 13.75 40 13.75H44.4812L36.25 5.51752Z" fill="#B3B3B3"/>
<path fill-rule="evenodd" clip-rule="evenodd" d="M46.2487 31.3062V17.07C46.2487 16.7925 46.2175 16.5175 46.1575 16.25H40C36.5487 16.25 33.75 13.4513 33.75 10V3.84125C33.4825 3.78 33.2075 3.75 32.9287 3.75H7.49872C5.42747 3.75 3.74872 5.42875 3.74872 7.5V52.5C3.74872 54.5713 5.42747 56.25 7.49872 56.25H37.0975C33.5612 53.7612 31.25 49.6488 31.25 45C31.25 37.4113 37.4112 31.25 45 31.25C45.4212 31.25 45.8375 31.2687 46.2487 31.3062ZM22.4987 46.25H27.5C28.19 46.25 28.75 45.69 28.75 45C28.75 44.31 28.19 43.75 27.5 43.75H22.4987C21.8087 43.75 21.2487 44.31 21.2487 45C21.2487 45.69 21.8087 46.25 22.4987 46.25ZM9.11497 43.3838L11.615 45.8838C12.1037 46.3725 12.895 46.3725 13.3825 45.8838L18.3837 40.8838C18.8712 40.3963 18.8712 39.6037 18.3837 39.1162C17.8962 38.6287 17.1037 38.6287 16.6162 39.1162L12.4987 43.2325L10.8825 41.6162C10.395 41.1287 9.60247 41.1287 9.11497 41.6162C8.62747 42.1037 8.62747 42.8963 9.11497 43.3838ZM22.4987 41.25H27.5C28.19 41.25 28.75 40.69 28.75 40C28.75 39.31 28.19 38.75 27.5 38.75H22.4987C21.8087 38.75 21.2487 39.31 21.2487 40C21.2487 40.69 21.8087 41.25 22.4987 41.25ZM22.4987 33.75H32.5C33.19 33.75 33.75 33.19 33.75 32.5C33.75 31.81 33.19 31.25 32.5 31.25H22.4987C21.8087 31.25 21.2487 31.81 21.2487 32.5C21.2487 33.19 21.8087 33.75 22.4987 33.75ZM9.11497 30.8838L11.615 33.3838C12.1037 33.8725 12.895 33.8725 13.3825 33.3838L18.3837 28.3838C18.8712 27.8963 18.8712 27.1037 18.3837 26.6162C17.8962 26.1287 17.1037 26.1287 16.6162 26.6162L12.4987 30.7325L10.8825 29.1162C10.395 28.6287 9.60247 28.6287 9.11497 29.1162C8.62747 29.6037 8.62747 30.3963 9.11497 30.8838ZM22.4987 28.75H39.9987C40.6887 28.75 41.2487 28.19 41.2487 27.5C41.2487 26.81 40.6887 26.25 39.9987 26.25H22.4987C21.8087 26.25 21.2487 26.81 21.2487 27.5C21.2487 28.19 21.8087 28.75 22.4987 28.75ZM22.4987 21.25H39.9987C40.6887 21.25 41.2487 20.69 41.2487 20C41.2487 19.31 40.6887 18.75 39.9987 18.75H22.4987C21.8087 18.75 21.2487 19.31 21.2487 20C21.2487 20.69 21.8087 21.25 22.4987 21.25ZM9.11497 18.3838L11.615 20.8838C12.1037 21.3725 12.895 21.3725 13.3825 20.8838L18.3837 15.8838C18.8712 15.3963 18.8712 14.6037 18.3837 14.1162C17.8962 13.6287 17.1037 13.6287 16.6162 14.1162L12.4987 18.2325L10.8825 16.6162C10.395 16.1287 9.60247 16.1287 9.11497 16.6162C8.62747 17.1037 8.62747 17.8963 9.11497 18.3838ZM22.4987 16.25H29.9987C30.6887 16.25 31.2487 15.69 31.2487 15C31.2487 14.31 30.6887 13.75 29.9987 13.75H22.4987C21.8087 13.75 21.2487 14.31 21.2487 15C21.2487 15.69 21.8087 16.25 22.4987 16.25Z" fill="#B3B3B3"/>
<path fill-rule="evenodd" clip-rule="evenodd" d="M45 33.75C51.2087 33.75 56.25 38.7913 56.25 45C56.25 51.2087 51.2087 56.25 45 56.25C38.7913 56.25 33.75 51.2087 33.75 45C33.75 38.7913 38.7913 33.75 45 33.75ZM38.8125 45.8838L42.3487 49.42C42.8362 49.9075 43.6275 49.9075 44.1162 49.42L51.1875 42.3487C51.675 41.86 51.675 41.0688 51.1875 40.58C50.6988 40.0925 49.9075 40.0925 49.4188 40.58L43.2325 46.7675L40.5812 44.1162C40.0925 43.6287 39.3012 43.6287 38.8125 44.1162C38.325 44.6037 38.325 45.3963 38.8125 45.8838Z" fill="#B3B3B3"/>
</svg>
