<svg width="58" height="58" viewBox="0 0 58 58" fill="none" xmlns="http://www.w3.org/2000/svg">
<g clip-path="url(#clip0_1657_437)">
<path d="M42.6331 42.9415C40.1836 45.3921 36.8541 46.8681 33.4003 47.0582C32.5661 47.6776 30.5 48.8998 27.18 48.8998C25.7715 48.8998 24.76 48.4538 24.1737 47.5744C23.6393 46.7729 23.6641 45.9345 23.6605 45.2619C22.6729 45.2245 21.4421 46.2414 21.1014 46.582C20.4379 47.2456 19.3619 47.2456 18.6983 46.582C18.0347 45.9184 18.0347 44.8426 18.6983 44.179C18.9355 43.9418 21.0869 41.8613 23.54 41.8613C24.9485 41.8613 25.96 42.3073 26.5463 43.1867C27.0807 43.9881 27.0559 44.8265 27.0594 45.4993C28.4798 45.5508 30.0081 45.1505 30.9625 44.6048C31.1497 41.1238 32.5941 37.8769 35.0786 35.3916L43.4397 27.0287V16.018C43.4397 15.0795 42.6789 14.3188 41.7405 14.3188H30.8202C29.8818 14.3188 29.121 13.558 29.121 12.6195V1.69922C29.121 0.760797 28.3602 0 27.4218 0H1.69922C0.760797 0 0 0.760797 0 1.69922V56.3008C0 57.2392 0.760797 58 1.69922 58H41.7404C42.6788 58 43.4396 57.2392 43.4396 56.3008V42.1347C42.9301 42.6445 42.6331 42.9415 42.6331 42.9415ZM8.97947 18.2006H16.2597C18.5119 18.2842 18.5102 21.5162 16.2597 21.599H8.97947C6.72732 21.5154 6.72902 18.2833 8.97947 18.2006ZM8.97947 25.4807H34.4602C36.7123 25.5643 36.7106 28.7963 34.4602 28.8791H8.97947C6.72732 28.7955 6.72902 25.5635 8.97947 25.4807ZM7.28025 34.4602C7.28025 33.5217 8.04104 32.7609 8.97947 32.7609H27.18C29.4322 32.8445 29.4305 36.0766 27.18 36.1594H8.97947C8.04093 36.1594 7.28025 35.3986 7.28025 34.4602Z" fill="#B3B3B3"/>
<path d="M32.5192 10.9203H41.7403C41.9988 10.9203 42.2528 10.94 42.5011 10.9773L32.4621 0.938416C32.4994 1.18673 32.5191 1.4407 32.5191 1.69921V10.9203H32.5192Z" fill="#B3B3B3"/>
<path d="M57.2704 20.7492C56.8076 20.2862 56.1663 20.0205 55.511 20.0205C55.3472 20.0205 55.1901 20.0856 55.0743 20.2015L37.4813 37.7947C35.902 39.3746 34.8754 41.3603 34.4998 43.5163C36.6534 43.1328 38.6748 42.0943 40.2292 40.5393C40.2292 40.5393 57.8191 22.9451 57.8191 22.945C57.9349 22.8292 58 22.6719 58 22.5081C58 21.8542 57.734 21.2131 57.2704 20.7492Z" fill="#B3B3B3"/>
</g>
<defs>
<clipPath id="clip0_1657_437">
<rect width="58" height="58" fill="white"/>
</clipPath>
</defs>
</svg>
