<svg width="60" height="60" viewBox="0 0 60 60" fill="none" xmlns="http://www.w3.org/2000/svg">
<path d="M30 3.23749V12.5H39.2625L30 3.23749Z" fill="#B3B3B3"/>
<path d="M32.5 42.5H35V45H32.5V42.5Z" fill="#B3B3B3"/>
<path d="M27.5 32.5H40V15H30C29.337 15 28.7011 14.7366 28.2322 14.2678C27.7634 13.7989 27.5 13.163 27.5 12.5V2.5H5C4.33696 2.5 3.70107 2.76339 3.23223 3.23223C2.76339 3.70107 2.5 4.33696 2.5 5V55C2.5 55.663 2.76339 56.2989 3.23223 56.7678C3.70107 57.2366 4.33696 57.5 5 57.5H23.2C22.7456 56.745 22.5037 55.8812 22.5 55V37.5C22.5 36.1739 23.0268 34.9021 23.9645 33.9645C24.9021 33.0268 26.1739 32.5 27.5 32.5ZM25.625 28.75C25.2542 28.75 24.8916 28.64 24.5833 28.434C24.275 28.228 24.0346 27.9351 23.8927 27.5925C23.7508 27.2499 23.7137 26.8729 23.786 26.5092C23.8584 26.1455 24.037 25.8114 24.2992 25.5492C24.5614 25.287 24.8955 25.1084 25.2592 25.036C25.6229 24.9637 25.9999 25.0008 26.3425 25.1427C26.6851 25.2846 26.978 25.525 27.184 25.8333C27.39 26.1416 27.5 26.5042 27.5 26.875C27.5 27.3723 27.3025 27.8492 26.9508 28.2008C26.5992 28.5525 26.1223 28.75 25.625 28.75ZM16.875 16.25C17.2458 16.25 17.6084 16.36 17.9167 16.566C18.225 16.772 18.4654 17.0649 18.6073 17.4075C18.7492 17.7501 18.7863 18.1271 18.714 18.4908C18.6416 18.8545 18.463 19.1886 18.2008 19.4508C17.9386 19.713 17.6045 19.8916 17.2408 19.964C16.8771 20.0363 16.5001 19.9992 16.1575 19.8573C15.8149 19.7154 15.522 19.475 15.316 19.1667C15.11 18.8584 15 18.4958 15 18.125C15 17.6277 15.1975 17.1508 15.5492 16.7992C15.9008 16.4475 16.3777 16.25 16.875 16.25ZM18.75 50H8.75C8.41848 50 8.10054 49.8683 7.86612 49.6339C7.6317 49.3995 7.5 49.0815 7.5 48.75C7.5 48.4185 7.6317 48.1005 7.86612 47.8661C8.10054 47.6317 8.41848 47.5 8.75 47.5H18.75C19.0815 47.5 19.3995 47.6317 19.6339 47.8661C19.8683 48.1005 20 48.4185 20 48.75C20 49.0815 19.8683 49.3995 19.6339 49.6339C19.3995 49.8683 19.0815 50 18.75 50ZM18.75 43.75H8.75C8.41848 43.75 8.10054 43.6183 7.86612 43.3839C7.6317 43.1495 7.5 42.8315 7.5 42.5C7.5 42.1685 7.6317 41.8505 7.86612 41.6161C8.10054 41.3817 8.41848 41.25 8.75 41.25H18.75C19.0815 41.25 19.3995 41.3817 19.6339 41.6161C19.8683 41.8505 20 42.1685 20 42.5C20 42.8315 19.8683 43.1495 19.6339 43.3839C19.3995 43.6183 19.0815 43.75 18.75 43.75ZM18.75 37.5H8.75C8.41848 37.5 8.10054 37.3683 7.86612 37.1339C7.6317 36.8995 7.5 36.5815 7.5 36.25C7.5 35.9185 7.6317 35.6005 7.86612 35.3661C8.10054 35.1317 8.41848 35 8.75 35H18.75C19.0815 35 19.3995 35.1317 19.6339 35.3661C19.8683 35.6005 20 35.9185 20 36.25C20 36.5815 19.8683 36.8995 19.6339 37.1339C19.3995 37.3683 19.0815 37.5 18.75 37.5ZM17.1375 28.3875C17.0213 28.5047 16.883 28.5977 16.7307 28.6611C16.5784 28.7246 16.415 28.7572 16.25 28.7572C16.085 28.7572 15.9216 28.7246 15.7693 28.6611C15.617 28.5977 15.4787 28.5047 15.3625 28.3875C15.2453 28.2713 15.1523 28.133 15.0889 27.9807C15.0254 27.8284 14.9928 27.665 14.9928 27.5C14.9928 27.335 15.0254 27.1716 15.0889 27.0193C15.1523 26.867 15.2453 26.7287 15.3625 26.6125L25.3625 16.6125C25.5979 16.3771 25.9171 16.2449 26.25 16.2449C26.5829 16.2449 26.9021 16.3771 27.1375 16.6125C27.3729 16.8479 27.5051 17.1671 27.5051 17.5C27.5051 17.8329 27.3729 18.1521 27.1375 18.3875L17.1375 28.3875Z" fill="#B3B3B3"/>
<path d="M55 35H27.5C26.837 35 26.2011 35.2634 25.7322 35.7322C25.2634 36.2011 25 36.837 25 37.5V55C25 55.663 25.2634 56.2989 25.7322 56.7678C26.2011 57.2366 26.837 57.5 27.5 57.5H55C55.663 57.5 56.2989 57.2366 56.7678 56.7678C57.2366 56.2989 57.5 55.663 57.5 55V37.5C57.5 36.837 57.2366 36.2011 56.7678 35.7322C56.2989 35.2634 55.663 35 55 35ZM30 41.25C30 40.9185 30.1317 40.6005 30.3661 40.3661C30.6005 40.1317 30.9185 40 31.25 40H36.25C36.5815 40 36.8995 40.1317 37.1339 40.3661C37.3683 40.6005 37.5 40.9185 37.5 41.25V46.25C37.5 46.5815 37.3683 46.8995 37.1339 47.1339C36.8995 47.3683 36.5815 47.5 36.25 47.5H31.25C30.9185 47.5 30.6005 47.3683 30.3661 47.1339C30.1317 46.8995 30 46.5815 30 46.25V41.25ZM32.5 53.75H31.25C30.9185 53.75 30.6005 53.6183 30.3661 53.3839C30.1317 53.1495 30 52.8315 30 52.5C30 52.1685 30.1317 51.8505 30.3661 51.6161C30.6005 51.3817 30.9185 51.25 31.25 51.25H32.5C32.8315 51.25 33.1495 51.3817 33.3839 51.6161C33.6183 51.8505 33.75 52.1685 33.75 52.5C33.75 52.8315 33.6183 53.1495 33.3839 53.3839C33.1495 53.6183 32.8315 53.75 32.5 53.75ZM38.75 53.75H37.5C37.1685 53.75 36.8505 53.6183 36.6161 53.3839C36.3817 53.1495 36.25 52.8315 36.25 52.5C36.25 52.1685 36.3817 51.8505 36.6161 51.6161C36.8505 51.3817 37.1685 51.25 37.5 51.25H38.75C39.0815 51.25 39.3995 51.3817 39.6339 51.6161C39.8683 51.8505 40 52.1685 40 52.5C40 52.8315 39.8683 53.1495 39.6339 53.3839C39.3995 53.6183 39.0815 53.75 38.75 53.75ZM45 53.75H43.75C43.4185 53.75 43.1005 53.6183 42.8661 53.3839C42.6317 53.1495 42.5 52.8315 42.5 52.5C42.5 52.1685 42.6317 51.8505 42.8661 51.6161C43.1005 51.3817 43.4185 51.25 43.75 51.25H45C45.3315 51.25 45.6495 51.3817 45.8839 51.6161C46.1183 51.8505 46.25 52.1685 46.25 52.5C46.25 52.8315 46.1183 53.1495 45.8839 53.3839C45.6495 53.6183 45.3315 53.75 45 53.75ZM51.25 53.75H50C49.6685 53.75 49.3505 53.6183 49.1161 53.3839C48.8817 53.1495 48.75 52.8315 48.75 52.5C48.75 52.1685 48.8817 51.8505 49.1161 51.6161C49.3505 51.3817 49.6685 51.25 50 51.25H51.25C51.5815 51.25 51.8995 51.3817 52.1339 51.6161C52.3683 51.8505 52.5 52.1685 52.5 52.5C52.5 52.8315 52.3683 53.1495 52.1339 53.3839C51.8995 53.6183 51.5815 53.75 51.25 53.75Z" fill="#B3B3B3"/>
</svg>
