<svg width="69" height="69" viewBox="0 0 69 69" fill="none" xmlns="http://www.w3.org/2000/svg">
<g clip-path="url(#clip0_1657_456)">
<path fill-rule="evenodd" clip-rule="evenodd" d="M61.0696 19.9498H53.456V11.9981H59.2551C60.2545 11.9981 61.0696 12.8131 61.0696 13.8125V19.9498ZM20.6716 19.9498H26.5479V11.9981H20.6716C18.4787 11.9981 16.6944 13.7817 16.6944 15.9739C16.6944 18.1661 18.4787 19.9498 20.6716 19.9498ZM46.0229 40.0662C46.0229 35.6023 49.6677 31.9574 54.1317 31.9574H66.1244V23.9218C66.1244 22.9224 65.3093 22.1074 64.3099 22.1074H20.6717C20.5806 22.1074 20.4902 22.1048 20.4003 22.1C18.4173 22.0132 16.6759 20.9802 15.617 19.4426V35.3942C15.8053 35.3881 15.9941 35.3839 16.184 35.3839C19.0623 35.3839 21.8714 36.0944 24.3757 37.4316C24.8161 36.9766 25.3937 36.646 26.0602 36.5127C27.8075 36.1634 29.515 37.3006 29.8653 39.0479L30.8249 43.8354C31.0443 44.9301 30.6828 46.0615 29.8693 46.8262C29.6344 47.0674 29.8138 47.242 29.9914 47.2328C31.6147 47.1469 33.0782 48.2962 33.349 49.9373C33.5038 50.876 33.581 51.8292 33.581 52.7807C33.581 54.6077 33.2974 56.3694 32.7728 58.0248H64.31C65.3094 58.0248 66.1245 57.2098 66.1245 56.2103V48.1748H54.1319C49.6679 48.1748 46.023 44.5299 46.023 40.066L46.0229 40.0662ZM68.0568 35.9605V44.172C68.0568 45.1892 67.2272 46.0188 66.2099 46.0188H54.1317C50.8577 46.0188 48.1791 43.3401 48.1791 40.0662C48.1791 36.7924 50.8579 34.1136 54.1317 34.1136H66.2099C67.2272 34.1136 68.0568 34.9432 68.0568 35.9605ZM56.6509 40.0664C56.6509 38.7036 55.5461 37.5988 54.1833 37.5988C52.8206 37.5988 51.7158 38.7036 51.7158 40.0664C51.7158 41.4291 52.8206 42.5339 54.1833 42.5339C55.5461 42.5339 56.6509 41.4291 56.6509 40.0664ZM16.1839 43.1704C21.4915 43.1704 25.7941 47.4731 25.7941 52.7807C25.7941 58.0883 21.4915 62.391 16.1839 62.391C10.8763 62.391 6.5736 58.0883 6.5736 52.7807C6.5736 47.4731 10.8763 43.1704 16.1839 43.1704ZM16.1839 45.4327C15.5885 45.4327 15.1057 45.9155 15.1057 46.5109V52.7807C15.1057 53.2161 15.364 53.5913 15.7356 53.7614L20.4069 56.4584C20.9209 56.7538 21.5771 56.5765 21.8725 56.0625C22.1679 55.5485 21.9905 54.8923 21.4765 54.5969L17.2619 52.1636V46.5109C17.2619 45.9155 16.7793 45.4327 16.1839 45.4327ZM29.9828 49.3997C29.3948 49.4965 28.9971 50.0507 29.0933 50.6381C29.209 51.3418 29.2688 52.0624 29.2688 52.781C29.2688 59.9952 23.3983 65.8652 16.184 65.8652C8.96973 65.8652 3.09974 59.9954 3.09974 52.781C3.09974 45.5666 8.96838 39.6968 16.184 39.6968C19.1261 39.6968 21.9442 40.6812 24.2228 42.4563L23.065 42.1535C22.49 42.0028 21.9006 42.3465 21.7498 42.9229C21.5978 43.4984 21.9428 44.0879 22.5179 44.2386L27.3787 45.5141C27.7387 45.6083 28.1214 45.5102 28.3923 45.2555C28.6633 45.0008 28.7834 44.624 28.7106 44.2595L27.7509 39.472C27.6346 38.8885 27.0661 38.5104 26.4827 38.6273C25.8991 38.7436 25.521 39.3122 25.6379 39.8956L25.8588 41.0047C23.1526 38.7794 19.7459 37.5402 16.1839 37.5402C7.77988 37.5402 0.943089 44.3777 0.943089 52.781C0.943089 61.1843 7.77988 68.0211 16.1839 68.0211C24.5879 68.0211 31.4246 61.1843 31.4246 52.781C31.4246 51.9454 31.3558 51.1066 31.2213 50.2885C31.1238 49.7005 30.5689 49.3021 29.9828 49.3996V49.3997ZM51.2999 19.9499H28.7041V2.05046C28.7041 1.46113 29.1863 0.978943 29.7757 0.978943H50.2285C50.8178 0.978943 51.3 1.46113 51.3 2.05046V19.9498L51.2999 19.9499ZM42.6524 10.205C41.8466 9.73197 41.0072 9.53184 40.1956 9.33819C39.9234 9.27323 39.6661 9.21218 39.41 9.14129C38.6524 8.93011 38.2431 8.70074 38.0398 8.37394C37.7968 7.98608 38.0209 7.65793 38.1756 7.49675C38.5882 7.0659 39.5733 6.84691 40.518 6.97561C41.2697 7.0783 41.8656 7.38044 42.0729 7.76439C42.3549 8.28876 43.0099 8.48431 43.5336 8.20225C44.058 7.91964 44.2535 7.26589 43.9709 6.74166C43.4615 5.79493 42.4167 5.12636 41.0795 4.88203V3.96333C41.0795 3.36753 40.5975 2.88534 40.0022 2.88534C39.407 2.88534 38.9235 3.36753 38.9235 3.96333V4.87488C37.9899 5.0432 37.1646 5.43497 36.6189 6.00354C35.6611 7.00162 35.5008 8.38094 36.2108 9.51608C36.8619 10.5584 37.9535 10.9729 38.8307 11.2178C39.1257 11.3002 39.4154 11.3692 39.6955 11.4361C40.3848 11.5998 41.034 11.7545 41.5609 12.0644C42.1984 12.4386 42.1581 12.7608 42.1353 12.9538C42.0975 13.2682 41.8884 13.5489 41.5771 13.7036C40.3738 14.3021 38.2159 13.9323 37.7298 13.0441C37.444 12.5218 36.789 12.3307 36.2658 12.6165C35.7447 12.9023 35.5517 13.5573 35.8382 14.0798C36.4165 15.1376 37.6147 15.7893 38.9233 16.0355V16.9654C38.9233 17.5605 39.406 18.0432 40.0019 18.0432C40.5979 18.0432 41.0793 17.5605 41.0793 16.9654V16.0778C41.605 15.9979 42.1027 15.8503 42.5366 15.634C43.4988 15.1552 44.1487 14.2507 44.2747 13.2143C44.4255 11.9772 43.8504 10.9077 42.6522 10.2046L42.6524 10.205Z" fill="#B3B3B3"/>
</g>
<defs>
<clipPath id="clip0_1657_456">
<rect width="69" height="69" fill="white"/>
</clipPath>
</defs>
</svg>
